<svg width="20" height="20" viewBox="0 0 20 20" fill="none" xmlns="http://www.w3.org/2000/svg">
<path d="M13.3337 1.66797V5.0013" stroke="#838383" stroke-width="1.5" stroke-linecap="round" stroke-linejoin="round"/>
<path d="M6.66667 1.66797V5.0013" stroke="#838383" stroke-width="1.5" stroke-linecap="round" stroke-linejoin="round"/>
<path d="M2.5 7.4987H17.5" stroke="#838383" stroke-width="1.5" stroke-linecap="round" stroke-linejoin="round"/>
<path fill-rule="evenodd" clip-rule="evenodd" d="M15.8333 3.33203H4.16667C3.24583 3.33203 2.5 4.07786 2.5 4.9987V15.832C2.5 16.7529 3.24583 17.4987 4.16667 17.4987H15.8333C16.7542 17.4987 17.5 16.7529 17.5 15.832V4.9987C17.5 4.07786 16.7542 3.33203 15.8333 3.33203Z" stroke="#838383" stroke-width="1.5" stroke-linecap="round" stroke-linejoin="round"/>
<path d="M5.84455 10.6068C5.72955 10.6068 5.63621 10.7001 5.63705 10.8151C5.63705 10.9301 5.73038 11.0234 5.84538 11.0234C5.96038 11.0234 6.05371 10.9301 6.05371 10.8151C6.05371 10.7001 5.96038 10.6068 5.84455 10.6068" stroke="#838383" stroke-width="1.5" stroke-linecap="round" stroke-linejoin="round"/>
<path d="M10.0106 10.6068C9.89556 10.6068 9.80223 10.7001 9.80306 10.8151C9.80306 10.9301 9.8964 11.0234 10.0114 11.0234C10.1264 11.0234 10.2197 10.9301 10.2197 10.8151C10.2197 10.7001 10.1264 10.6068 10.0106 10.6068" stroke="#838383" stroke-width="1.5" stroke-linecap="round" stroke-linejoin="round"/>
<path d="M14.1776 10.6068C14.0626 10.6068 13.9692 10.7001 13.9701 10.8151C13.9701 10.9301 14.0634 11.0234 14.1784 11.0234C14.2934 11.0234 14.3867 10.9301 14.3867 10.8151C14.3867 10.7001 14.2934 10.6068 14.1776 10.6068" stroke="#838383" stroke-width="1.5" stroke-linecap="round" stroke-linejoin="round"/>
<path d="M5.84455 13.9427C5.72955 13.9427 5.63621 14.036 5.63705 14.151C5.63705 14.266 5.73038 14.3594 5.84538 14.3594C5.96038 14.3594 6.05371 14.266 6.05371 14.151C6.05371 14.036 5.96038 13.9427 5.84455 13.9427" stroke="#838383" stroke-width="1.5" stroke-linecap="round" stroke-linejoin="round"/>
<path d="M10.0106 13.9427C9.89556 13.9427 9.80223 14.036 9.80306 14.151C9.80306 14.266 9.8964 14.3594 10.0114 14.3594C10.1264 14.3594 10.2197 14.266 10.2197 14.151C10.2197 14.036 10.1264 13.9427 10.0106 13.9427" stroke="#838383" stroke-width="1.5" stroke-linecap="round" stroke-linejoin="round"/>
</svg>
